<svg xmlns="http://www.w3.org/2000/svg" viewBox="0 0 54.75 60.6"><defs><style>.cls-1,.cls-2{fill:#fff;}.cls-1{stroke:#1d1d1b;stroke-miterlimit:10;stroke-width:0.55px;}.cls-3{fill:#d70f1e;}</style></defs><g id="Layer_2" data-name="Layer 2"><g id="Layer_1-2" data-name="Layer 1"><path class="cls-1" d="M43.73,45.62l0,0-.08-.09Z"/><path class="cls-2" d="M54.69,43.1a2.3,2.3,0,0,1-.6,2.14,2.24,2.24,0,0,1-1.6.66h-13a2.2,2.2,0,0,1-1.08-.28l-.11-.06c-.38-.24-1.18-.58-1.36-1L0,1.89a.07.07,0,0,1,0-.11L2,0a.07.07,0,0,1,.11,0L37.55,40.41a2.87,2.87,0,0,0,2.14,1H52.34A2.36,2.36,0,0,1,54.69,43.1Z"/><path class="cls-2" d="M.06,43.1a2.28,2.28,0,0,0,.6,2.14,2.24,2.24,0,0,0,1.6.66h13a2.2,2.2,0,0,0,1.08-.28l.11-.06c.38-.24,1.18-.58,1.36-1L54.73,1.89a.08.08,0,0,0,0-.11L52.72,0a.07.07,0,0,0-.11,0L17.2,40.41a2.87,2.87,0,0,1-2.14,1H2.41A2.36,2.36,0,0,0,.06,43.1Z"/><path class="cls-3" d="M14.52,57.06h1.2V59L14.16,60.6H10.38L8.82,59V51l1.56-1.65h3.78L15.72,51v1.89h-1.2V51.61l-.95-1H11l-.78.79v7.08l.76.8h2.6l1-1Z"/><path class="cls-3" d="M17.82,50.85H21.3v1.2H20.25v3.07h4.62V52.05H23.82v-1.2H27.3v1.2H26.25V59.4H27.3v1.2H23.82V59.4h1.05V56.32H20.25V59.4H21.3v1.2H17.82V59.4h1.05V52.05H17.82Z"/><path class="cls-3" d="M29.7,50.85h7.14v2.94h-1.2V52.05H32.13v3.07h3.51v1.2H32.13V59.4h3.51V57.66h1.2V60.6H29.7V59.4h1.05V52.05H29.7Z"/><path class="cls-3" d="M39.24,50.85h3.63v1.2h-1.2V59.4h3.27V57.66h1.14V60.6H39.24V59.4h1V52.05h-1Z"/><path class="cls-2" d="M35.36,32.7V28.15h-.58V27.9H36.2v.25h-.57V32.7Z"/><path class="cls-2" d="M37,32.73a.7.7,0,0,1-.5-.15.71.71,0,0,1-.17-.49c0-.19,0-.38,0-.58V30.29c0-.2,0-.39,0-.58a.74.74,0,0,1,.17-.5.71.71,0,0,1,.5-.15.66.66,0,0,1,.48.15.71.71,0,0,1,.17.49V30c0,.13,0,.27,0,.44s0,.34,0,.54h-1c0,.18,0,.36,0,.54s0,.39,0,.61a.43.43,0,0,0,.09.31.47.47,0,0,0,.3.08.41.41,0,0,0,.28-.08.47.47,0,0,0,.1-.31v-.28c0-.1,0-.21,0-.33h.27c0,.11,0,.21,0,.31v.28a.77.77,0,0,1-.16.49A.64.64,0,0,1,37,32.73Zm-.41-2h.79v-.42a2.28,2.28,0,0,0,0-.37v-.26a.46.46,0,0,0-.1-.3.38.38,0,0,0-.28-.09.33.33,0,0,0-.39.39c0,.2,0,.39,0,.56S36.56,30.57,36.56,30.73Z"/><path class="cls-2" d="M38.64,32.73a.45.45,0,0,1-.39-.16,1,1,0,0,1-.15-.47v-.32a2.2,2.2,0,0,1,.06-.37,1.3,1.3,0,0,1,.16-.31,1.42,1.42,0,0,1,.31-.28l.25-.15.27-.14v-.84a.5.5,0,0,0-.08-.31.35.35,0,0,0-.28-.09.4.4,0,0,0-.26.08.42.42,0,0,0-.1.31,1,1,0,0,0,0,.18v.22a1.27,1.27,0,0,0,0,.2h-.27V30a1.4,1.4,0,0,1,0-.29.82.82,0,0,1,.07-.37.45.45,0,0,1,.21-.2.77.77,0,0,1,.36-.07.76.76,0,0,1,.37.07.41.41,0,0,1,.19.22,1,1,0,0,1,.06.38v3h-.27v-.31h-.06a.53.53,0,0,1-.15.25A.44.44,0,0,1,38.64,32.73Zm.07-.22a.36.36,0,0,0,.27-.1.58.58,0,0,0,.16-.28V30.78l-.21.11a1.68,1.68,0,0,0-.26.19.64.64,0,0,0-.24.31,1.52,1.52,0,0,0-.06.39v.3a.58.58,0,0,0,.11.32A.28.28,0,0,0,38.71,32.51Z"/><path class="cls-2" d="M40.09,32.7V29.1h.27v.3h.06a.68.68,0,0,1,.19-.26.64.64,0,0,1,.62,0,.46.46,0,0,1,.16.27h.07a.55.55,0,0,1,.2-.26.53.53,0,0,1,.32-.09.46.46,0,0,1,.38.15.72.72,0,0,1,.13.49v3h-.27v-3a.47.47,0,0,0-.08-.3.3.3,0,0,0-.24-.09.44.44,0,0,0-.29.09.55.55,0,0,0-.18.3v3h-.27v-3a.47.47,0,0,0-.08-.3.3.3,0,0,0-.24-.09.49.49,0,0,0-.3.09.55.55,0,0,0-.18.3v3Z"/><path class="cls-2" d="M43.68,32.73a.62.62,0,0,1-.47-.15.72.72,0,0,1-.14-.49,2.53,2.53,0,0,1,0-.28c0-.1,0-.2,0-.31h.25c0,.12,0,.23,0,.33s0,.19,0,.28a.46.46,0,0,0,.08.31.43.43,0,0,0,.28.08.47.47,0,0,0,.3-.08.41.41,0,0,0,.09-.31,1.09,1.09,0,0,1,0-.18v-.31a1.44,1.44,0,0,0-.06-.39A.33.33,0,0,0,43.8,31L43.55,31a.89.89,0,0,1-.29-.17.44.44,0,0,1-.14-.26,1.63,1.63,0,0,1,0-.43.6.6,0,0,1,0-.19v-.19a.81.81,0,0,1,.14-.5.65.65,0,0,1,.49-.15.63.63,0,0,1,.48.15.77.77,0,0,1,.14.49V30c0,.1,0,.21,0,.31h-.25v-.6a.48.48,0,0,0-.08-.31.39.39,0,0,0-.28-.08.41.41,0,0,0-.28.08.48.48,0,0,0-.08.31,1.15,1.15,0,0,1,0,.2v.2a2,2,0,0,0,.05.4.31.31,0,0,0,.22.22l.25.09a.64.64,0,0,1,.37.26,1,1,0,0,1,.12.56v.24a1.77,1.77,0,0,1,0,.24.77.77,0,0,1-.15.49A.68.68,0,0,1,43.68,32.73Z"/><path class="cls-2" d="M9.52,32.7V27.9h.62a.7.7,0,0,1,.5.15.75.75,0,0,1,.17.52c0,.3,0,.56,0,.79s0,.46,0,.69a.73.73,0,0,1-.17.52.65.65,0,0,1-.5.16H9.79v2Zm.27-2.22h.35a.38.38,0,0,0,.3-.1.5.5,0,0,0,.1-.32c0-.17,0-.34,0-.5v-.49c0-.17,0-.33,0-.51a.49.49,0,0,0-.1-.31.38.38,0,0,0-.3-.1H9.79Z"/><path class="cls-2" d="M11.34,32.7V27.9h.27v4.8Z"/><path class="cls-2" d="M12.75,32.73a.45.45,0,0,1-.39-.16.8.8,0,0,1-.15-.47v-.32a2.2,2.2,0,0,1,.06-.37.84.84,0,0,1,.16-.31,1.17,1.17,0,0,1,.3-.28l.26-.15.27-.14v-.84a.48.48,0,0,0-.08-.31.38.38,0,0,0-.28-.09.41.41,0,0,0-.27.08.47.47,0,0,0-.1.31v.6h-.26a2.71,2.71,0,0,1,0-.29V29.7a.81.81,0,0,1,.08-.37.38.38,0,0,1,.21-.2,1,1,0,0,1,.72,0,.41.41,0,0,1,.2.21,1.07,1.07,0,0,1,.06.39v3h-.27v-.31h-.06a.63.63,0,0,1-.16.25A.39.39,0,0,1,12.75,32.73Zm.06-.22a.41.41,0,0,0,.27-.1.58.58,0,0,0,.17-.28V30.78l-.22.11a2.34,2.34,0,0,0-.26.19.62.62,0,0,0-.23.31,1.51,1.51,0,0,0-.07.39v.14a.86.86,0,0,1,0,.16.58.58,0,0,0,.1.32A.3.3,0,0,0,12.81,32.51Z"/><path class="cls-2" d="M14.31,33.9h-.18l-.18,0v-.22l.17,0h.18a.36.36,0,0,0,.29-.09.62.62,0,0,0,.11-.32l.07-.57h-.31L14,29.1h.28l.16,1.78.19,1.59h.15L15,30.88l.18-1.78h.28L15,33.26a1.1,1.1,0,0,1-.1.37.45.45,0,0,1-.2.21A.9.9,0,0,1,14.31,33.9Z"/><path class="cls-2" d="M16.54,32.73a.71.71,0,0,1-.51-.15.71.71,0,0,1-.16-.49c0-.19,0-.38,0-.58s0-.4,0-.61,0-.41,0-.61,0-.39,0-.58a.57.57,0,0,1,.67-.65.66.66,0,0,1,.48.15.71.71,0,0,1,.16.49c0,.07,0,.16,0,.28v.44c0,.16,0,.34,0,.54H16.13v.54c0,.19,0,.39,0,.6a.48.48,0,0,0,.1.32.46.46,0,0,0,.29.08.32.32,0,0,0,.38-.4,2.26,2.26,0,0,0,0-.27c0-.1,0-.21,0-.33h.27c0,.11,0,.21,0,.31a2.53,2.53,0,0,1,0,.28.77.77,0,0,1-.15.49A.67.67,0,0,1,16.54,32.73Zm-.41-2h.79v-.79a1.86,1.86,0,0,0,0-.26.46.46,0,0,0-.09-.3.38.38,0,0,0-.28-.09.41.41,0,0,0-.3.09.46.46,0,0,0-.1.3c0,.2,0,.39,0,.56Z"/><path class="cls-2" d="M17.79,32.7V29.1h.27v.31h.07a.47.47,0,0,1,.16-.25.49.49,0,0,1,.28-.07h.18v.23h-.17a.58.58,0,0,0-.35.09.65.65,0,0,0-.17.31v3Z"/><path class="cls-2" d="M19.64,32.73a.6.6,0,0,1-.47-.15.77.77,0,0,1-.15-.49v-.28c0-.1,0-.2,0-.31h.25c0,.12,0,.23,0,.33v.27a.53.53,0,0,0,.09.32.41.41,0,0,0,.28.08.47.47,0,0,0,.3-.08A.53.53,0,0,0,20,32.1v-.33a.75.75,0,0,0,0-.15,1.18,1.18,0,0,0-.05-.39.35.35,0,0,0-.22-.19L19.51,31a.89.89,0,0,1-.29-.17.51.51,0,0,1-.15-.26,2.21,2.21,0,0,1-.05-.43V29.9c0-.06,0-.12,0-.19a.75.75,0,0,1,.14-.5.64.64,0,0,1,.49-.15.63.63,0,0,1,.48.15.84.84,0,0,1,.14.49V30c0,.1,0,.21,0,.31H20a1.62,1.62,0,0,0,0-.22v-.38a.48.48,0,0,0-.08-.31.41.41,0,0,0-.28-.08.39.39,0,0,0-.28.08.48.48,0,0,0-.08.31,1.56,1.56,0,0,0,0,.2v.2a2,2,0,0,0,.05.4.31.31,0,0,0,.22.22l.24.08a.73.73,0,0,1,.38.27,1,1,0,0,1,.12.56v.24c0,.08,0,.17,0,.24a.67.67,0,0,1-.15.49A.64.64,0,0,1,19.64,32.73Z"/><path class="cls-2" d="M24.57,20a.66.66,0,0,1-.51-.16.73.73,0,0,1-.17-.52c0-.14,0-.26,0-.37v-.33c0-.11,0-.23,0-.37h.27c0,.18,0,.37,0,.55s0,.37,0,.55a.47.47,0,0,0,.1.32.54.54,0,0,0,.6,0,.47.47,0,0,0,.09-.32c0-.12,0-.23,0-.33a1.4,1.4,0,0,0,0-.29c0-.1,0-.22,0-.36a1.58,1.58,0,0,0-.05-.41.32.32,0,0,0-.24-.21l-.27-.07a.61.61,0,0,1-.31-.16.58.58,0,0,1-.15-.28,2.56,2.56,0,0,1-.05-.45v-.47c0-.18,0-.35,0-.51a.88.88,0,0,1,.07-.39.41.41,0,0,1,.21-.22.88.88,0,0,1,.39-.07.63.63,0,0,1,.49.16.81.81,0,0,1,.16.53c0,.11,0,.25,0,.43s0,.35,0,.55h-.27c0-.17,0-.34,0-.51s0-.34,0-.51a.44.44,0,0,0-.09-.31.38.38,0,0,0-.3-.1.37.37,0,0,0-.29.1.49.49,0,0,0-.1.31c0,.17,0,.33,0,.5s0,.34,0,.51a1.44,1.44,0,0,0,.06.44.32.32,0,0,0,.24.19l.26.07a.57.57,0,0,1,.32.16.53.53,0,0,1,.14.29,1.75,1.75,0,0,1,.05.43c0,.15,0,.26,0,.36a2.44,2.44,0,0,1,0,.27v.32a.73.73,0,0,1-.17.52A.64.64,0,0,1,24.57,20Z"/><path class="cls-2" d="M26.44,20a.59.59,0,0,1-.47-.15.78.78,0,0,1-.13-.49V16.57h-.22v-.23h.23v-1h.27v1h.52v.23h-.52v2.78a.56.56,0,0,0,.06.31q0,.09.27.09h.14l.11,0v.22l-.12,0Z"/><path class="cls-2" d="M27.52,20a.44.44,0,0,1-.38-.16.87.87,0,0,1-.16-.47V19a2.16,2.16,0,0,1,.06-.38.84.84,0,0,1,.16-.31,1,1,0,0,1,.3-.27,2.26,2.26,0,0,1,.26-.16l.27-.14v-.84a.5.5,0,0,0-.08-.31.38.38,0,0,0-.28-.09.41.41,0,0,0-.27.08.48.48,0,0,0-.1.32v.17a.81.81,0,0,0,0,.22v.21H27c0-.1,0-.2,0-.3v-.29a1,1,0,0,1,.07-.37.45.45,0,0,1,.21-.2.82.82,0,0,1,.37-.07.74.74,0,0,1,.36.07.43.43,0,0,1,.2.22,1,1,0,0,1,.06.38v3H28v-.31H28a.57.57,0,0,1-.16.25A.42.42,0,0,1,27.52,20Zm.07-.22a.36.36,0,0,0,.27-.1.58.58,0,0,0,.17-.28V18l-.22.11-.26.19a.66.66,0,0,0-.23.31,1.59,1.59,0,0,0-.07.4v.13c0,.05,0,.11,0,.17a.54.54,0,0,0,.1.31A.3.3,0,0,0,27.59,19.75Z"/><path class="cls-2" d="M29.59,20a.59.59,0,0,1-.47-.15.78.78,0,0,1-.12-.49V16.57h-.22v-.23H29v-1h.28v1h.52v.23h-.53v2.78a.56.56,0,0,0,.06.31q.06.09.27.09h.14l.12,0v.22l-.13,0Z"/><path class="cls-2" d="M30.76,20a.63.63,0,0,1-.48-.15.72.72,0,0,1-.14-.49v-.59h.25v.61a.41.41,0,0,0,.09.31c.05.06.14.08.28.08a.39.39,0,0,0,.29-.08.41.41,0,0,0,.09-.31c0-.06,0-.12,0-.17v-.32a1.22,1.22,0,0,0-.06-.39.33.33,0,0,0-.22-.19l-.24-.09a.72.72,0,0,1-.3-.17.44.44,0,0,1-.14-.26,1.63,1.63,0,0,1-.05-.43V17a.8.8,0,0,1,.15-.5.84.84,0,0,1,1,0,.73.73,0,0,1,.14.5v.58h-.26c0-.08,0-.15,0-.22V17.1c0-.06,0-.12,0-.17a.44.44,0,0,0-.08-.32.39.39,0,0,0-.28-.08.38.38,0,0,0-.27.08.55.55,0,0,0-.09.32v.19a.67.67,0,0,0,0,.2,2,2,0,0,0,0,.4.33.33,0,0,0,.23.23l.24.08a.64.64,0,0,1,.37.26,1.06,1.06,0,0,1,.12.56v.24a1.77,1.77,0,0,1,0,.24.77.77,0,0,1-.15.49A.65.65,0,0,1,30.76,20Z"/></g></g></svg>